<?xml version="1.0" ?><svg height="24px" version="1.1" viewBox="0 0 24 24" width="24px" xmlns="http://www.w3.org/2000/svg" xmlns:sketch="http://www.bohemiancoding.com/sketch/ns" xmlns:xlink="http://www.w3.org/1999/xlink"><title/><desc/><defs/><g fill="none" fill-rule="evenodd" id="miu" stroke="none" stroke-width="1"><g id="Artboard-1" transform="translate(-287.000000, -191.000000)"><g id="slice" transform="translate(215.000000, 119.000000)"/><path d="M288,202.5 C288,196.148725 293.148725,191 299.5,191 C305.851275,191 311,196.148725 311,202.5 C311,208.851275 305.851275,214 299.5,214 C293.148725,214 288,208.851275 288,202.5 Z M310,202.5 C310,196.70101 305.29899,192 299.5,192 C293.70101,192 289,196.70101 289,202.5 C289,208.29899 293.70101,213 299.5,213 C305.29899,213 310,208.29899 310,202.5 Z M302.887452,201.072586 L302.692617,200.753057 C302.936812,200.446515 303.058907,200.18414 303.058907,199.965924 C303.058907,199.628209 302.747174,199.352845 302.1237,199.139825 C301.489834,198.932 300.985866,198.703396 300.611781,198.454006 L300.619575,205.351159 L300.619575,205.748622 C300.619575,205.972034 300.609184,206.125302 300.588401,206.208432 C300.510467,206.52017 300.272771,206.781246 299.875306,206.991668 C299.477841,207.202091 298.959585,207.307301 298.320524,207.307301 C296.870945,207.307301 296.146167,206.886462 296.146167,206.044771 C296.146167,205.691469 296.373472,205.390127 296.828089,205.140737 C297.282706,204.891348 297.826939,204.766655 298.460805,204.766655 C299.032323,204.766655 299.585649,204.997856 300.120798,205.460267 L300.120798,196.716079 L300.596195,196.692699 C300.715694,197.014828 300.846881,197.238236 300.989761,197.362931 C301.132641,197.487626 301.404108,197.612319 301.804171,197.737014 C303.170619,198.147468 303.853833,198.711184 303.853833,199.42818 C303.853833,199.895786 303.531709,200.443916 302.887452,201.072586 C302.887452,201.072586 303.531709,200.443916 302.887452,201.072586 Z" fill="#000000" id="circle-music-sound-audio-mp3-single_note-outline-stroke"/></g></g></svg>